<svg xmlns="http://www.w3.org/2000/svg" viewBox="0 0 1200 630">
<defs><linearGradient id="b" x1="0" y1="0" x2="1" y2="1"><stop stop-color="#07111f"/><stop offset="1" stop-color="#111a33"/></linearGradient><linearGradient id="a" x1="0" y1="0" x2="1" y2="0"><stop stop-color="#5ee7ff"/><stop offset="1" stop-color="#8b7cff"/></linearGradient><pattern id="g" width="42" height="42" patternUnits="userSpaceOnUse"><path d="M42 0H0V42" fill="none" stroke="#5ee7ff" stroke-opacity=".07"/></pattern></defs>
<rect width="1200" height="630" rx="32" fill="url(#b)"/><rect width="1200" height="630" rx="32" fill="url(#g)"/><rect x="70" y="65" width="1060" height="500" rx="25" fill="#0c1728" stroke="#5ee7ff" stroke-opacity=".32"/>
<g font-family="Inter,Segoe UI,sans-serif"><text x="120" y="150" fill="#5ee7ff" font-size="20" letter-spacing="6">ZACHARY CARVER</text><text x="120" y="245" fill="#f1f8ff" font-size="62" font-weight="700">BUILDING THE SYSTEMS</text><text x="120" y="320" fill="#f1f8ff" font-size="62" font-weight="700">BEHIND THE BUSINESS.</text><text x="120" y="385" fill="#9bb1c8" font-size="25">Software Systems Engineer · AI Automation Developer</text><rect x="120" y="445" width="750" height="10" rx="5" fill="#23344b"/><rect x="120" y="445" width="610" height="10" rx="5" fill="url(#a)"/><text x="120" y="505" fill="#a99cff" font-size="20">Full-stack applications · APIs · databases · secure cloud systems</text></g>
<g transform="translate(920 165)" fill="none" stroke="url(#a)" stroke-width="5"><circle cx="0" cy="0" r="32"/><circle cx="105" cy="70" r="32"/><circle cx="10" cy="160" r="32"/><path d="M27 17l52 35M82 91l-47 47M32 0h80M10 32v96"/></g>
</svg>
